<svg width="58" height="58" viewBox="0 0 58 58" fill="none" xmlns="http://www.w3.org/2000/svg">
<path opacity="0.4" d="M18.1833 20.1789C21.6354 20.0202 25.1409 19.9375 28.9974 19.9375C32.8539 19.9375 36.3595 20.0202 39.8115 20.1789C44.785 20.4075 48.8235 24.259 49.4799 29.1334C49.8378 31.7927 50.1432 34.5869 50.1432 37.4583C50.1432 40.3298 49.8378 43.124 49.4799 45.7833C48.8235 50.6577 44.785 54.5091 39.8115 54.7377C36.3595 54.8965 32.8539 54.9792 28.9974 54.9792C25.1409 54.9792 21.6354 54.8965 18.1833 54.7377C13.2097 54.5091 9.17128 50.6577 8.51499 45.7833C8.15693 43.124 7.85156 40.3298 7.85156 37.4583C7.85156 34.5869 8.15693 31.7927 8.51499 29.1334C9.17128 24.259 13.2097 20.4075 18.1833 20.1789Z" fill="#236936"/>
<path fill-rule="evenodd" clip-rule="evenodd" d="M24.5414 29.6045C23.0575 29.6045 21.6275 30.5132 21.1416 32.017L17.6117 42.943C17.304 43.8957 17.8267 44.9172 18.7792 45.2251C19.7317 45.5327 20.7534 45.01 21.0612 44.0576L21.8268 41.6878H27.2563L28.0219 44.0576C28.3298 45.01 29.3513 45.5327 30.304 45.2251C31.2564 44.9172 31.7791 43.8957 31.4715 42.943L27.9415 32.017C27.4557 30.5132 26.0255 29.6045 24.5414 29.6045ZM22.9987 38.0619L24.5424 33.2839L26.0859 38.0619H22.9987Z" fill="#236936"/>
<path d="M38.0625 31.417C38.0625 30.416 37.251 29.6045 36.25 29.6045C35.249 29.6045 34.4375 30.416 34.4375 31.417V43.5003C34.4375 44.5013 35.249 45.3128 36.25 45.3128C37.251 45.3128 38.0625 44.5013 38.0625 43.5003V31.417Z" fill="#236936"/>
<path d="M20.5443 16.3122C20.5443 11.6408 24.3312 7.85384 29.0026 7.85384C33.674 7.85384 37.4609 11.6408 37.4609 16.3122V20.0826C38.2512 20.1106 39.0354 20.1426 39.8167 20.1786C40.6746 20.218 41.5045 20.3652 42.2943 20.6069V16.3122C42.2943 8.97138 36.3435 3.02051 29.0026 3.02051C21.6618 3.02051 15.7109 8.97138 15.7109 16.3122V20.6069C16.5006 20.3652 17.3307 20.218 18.1886 20.1786C18.9699 20.1426 19.754 20.1106 20.5443 20.0826V16.3122Z" fill="#236936"/>
</svg>
