<svg width="154" height="154" viewBox="0 0 154 154" fill="none" xmlns="http://www.w3.org/2000/svg">
<g filter="url(#filter0_d_1_114)">
<rect x="1" y="1" width="152" height="152" rx="20" fill="white" fill-opacity="0.07" shape-rendering="crispEdges"/>
<path opacity="0.4" d="M83.4953 29.1751C86.1697 29.186 87.5072 29.1915 87.9095 29.8898C88.3113 30.588 87.5674 31.8809 86.0797 34.4668C84.0128 38.0592 82.8307 42.225 82.8307 46.667C82.8307 60.198 93.7997 71.167 107.331 71.167C111.772 71.167 115.938 69.9849 119.531 67.9181C122.117 66.4303 123.41 65.6865 124.108 66.0884C124.806 66.4903 124.812 67.828 124.823 70.5025C124.831 72.483 124.831 74.5587 124.831 76.7334V77.2673C124.831 87.4905 124.831 95.5205 123.988 101.79C123.124 108.214 121.318 113.311 117.313 117.316C113.308 121.321 108.211 123.127 101.787 123.991C95.5175 124.834 87.4876 124.834 77.2643 124.834H76.7305C66.5074 124.834 58.4774 124.834 52.2082 123.991C45.7838 123.127 40.6866 121.321 36.6816 117.316C32.6768 113.311 30.8706 108.214 30.0068 101.79C29.164 95.5205 29.164 87.4905 29.1641 77.2673V76.7334C29.164 66.5103 29.164 58.4804 30.0068 52.2111C30.8706 45.7867 32.6768 40.6895 36.6816 36.6846C40.6866 32.6797 45.7838 30.8735 52.2082 30.0097C58.4774 29.1669 66.5073 29.1669 76.7305 29.167H77.2643C79.439 29.167 81.5147 29.1669 83.4953 29.1751Z" fill="#4380ED"/>
<path fill-rule="evenodd" clip-rule="evenodd" d="M76.9974 61.833C78.9303 61.833 80.4974 63.4 80.4974 65.333V102.666C80.4974 104.599 78.9303 106.166 76.9974 106.166C75.0645 106.166 73.4974 104.599 73.4974 102.666V65.333C73.4974 63.4 75.0645 61.833 76.9974 61.833ZM100.331 80.4997C102.264 80.4997 103.831 82.0667 103.831 83.9997V102.666C103.831 104.599 102.264 106.166 100.331 106.166C98.3978 106.166 96.8307 104.599 96.8307 102.666V83.9997C96.8307 82.0667 98.3978 80.4997 100.331 80.4997ZM53.6641 85.1663C55.597 85.1663 57.1641 86.7334 57.1641 88.6663V102.666C57.1641 104.599 55.597 106.166 53.6641 106.166C51.7311 106.166 50.1641 104.599 50.1641 102.666V88.6663C50.1641 86.7334 51.7311 85.1663 53.6641 85.1663Z" fill="#4380ED"/>
<path d="M89.8359 46.667C89.8359 37.002 97.6708 29.167 107.336 29.167C117.001 29.167 124.836 37.002 124.836 46.667C124.836 56.332 117.001 64.167 107.336 64.167C97.6708 64.167 89.8359 56.332 89.8359 46.667Z" fill="#4380ED"/>
</g>
<defs>
<filter id="filter0_d_1_114" x="0" y="0" width="154" height="154" filterUnits="userSpaceOnUse" color-interpolation-filters="sRGB">
<feFlood flood-opacity="0" result="BackgroundImageFix"/>
<feColorMatrix in="SourceAlpha" type="matrix" values="0 0 0 0 0 0 0 0 0 0 0 0 0 0 0 0 0 0 127 0" result="hardAlpha"/>
<feMorphology radius="1" operator="dilate" in="SourceAlpha" result="effect1_dropShadow_1_114"/>
<feOffset/>
<feComposite in2="hardAlpha" operator="out"/>
<feColorMatrix type="matrix" values="0 0 0 0 0.176471 0 0 0 0 0.180392 0 0 0 0 0.282353 0 0 0 1 0"/>
<feBlend mode="normal" in2="BackgroundImageFix" result="effect1_dropShadow_1_114"/>
<feBlend mode="normal" in="SourceGraphic" in2="effect1_dropShadow_1_114" result="shape"/>
</filter>
</defs>
</svg>
