<svg width="54" height="54" viewBox="0 0 54 54" fill="none" xmlns="http://www.w3.org/2000/svg">
<g filter="url(#filter0_d_1_477)">
<rect x="1" y="1" width="52" height="52" rx="16" fill="white" fill-opacity="0.07" shape-rendering="crispEdges"/>
<path opacity="0.4" d="M35.2913 22.791C35.7609 22.7531 36.2364 22.8533 36.6488 23.0849C36.9453 23.2513 37.1667 23.4746 37.3267 23.6579C37.415 23.759 37.5345 23.9105 37.6213 24.0207C38.1602 24.6753 38.7112 25.3483 39.0347 25.8076C39.3688 26.2819 39.6218 26.7337 39.7617 27.2456C39.9681 28.0012 39.9681 28.7925 39.7617 29.548C39.569 30.2536 39.181 30.8608 38.7937 31.3676C38.5592 31.6744 38.275 32.0037 38.0247 32.2939C37.8877 32.4526 37.6926 32.6827 37.5897 32.8077C37.3047 33.1554 37.0235 33.4985 36.6488 33.7088C36.2364 33.9403 35.7609 34.0406 35.2913 34.0027C34.8685 33.9684 34.2886 33.7037 33.8596 33.5074C33.4388 33.3193 32.6451 32.9648 32.3429 32.07C32.2328 31.7446 32.2338 31.3968 32.2345 31.0731V25.7206C32.2338 25.3969 32.2328 25.049 32.3429 24.7236C32.6451 23.8289 33.4388 23.4743 33.8596 23.2863C34.2886 23.09 34.8685 22.8252 35.2913 22.791Z" fill="#3ED8EC"/>
<path opacity="0.4" d="M19.133 22.791C18.6634 22.7531 18.1879 22.8533 17.7754 23.0849C17.4789 23.2513 17.2576 23.4746 17.0976 23.6579C17.0093 23.759 16.8899 23.9105 16.803 24.0207C16.2641 24.6753 15.7131 25.3483 15.3896 25.8076C15.0555 26.2819 14.8025 26.7337 14.6626 27.2456C14.4562 28.0012 14.4562 28.7925 14.6626 29.548C14.8553 30.2536 15.2434 30.8608 15.6306 31.3676C15.865 31.6744 16.1493 32.0037 16.3997 32.2939C16.5366 32.4526 16.7317 32.6827 16.8347 32.8077C17.1195 33.1554 17.4008 33.4985 17.7754 33.7088C18.1879 33.9403 18.6634 34.0406 19.133 34.0027C19.5557 33.9684 20.1358 33.7037 20.5646 33.5074C20.9856 33.3193 21.7792 32.9648 22.0815 32.07C22.1914 31.7446 22.1906 31.3968 22.1898 31.0731V25.7206C22.1906 25.3969 22.1914 25.049 22.0815 24.7236C21.7792 23.8289 20.9856 23.4743 20.5646 23.2863C20.1357 23.09 19.5557 22.8252 19.133 22.791Z" fill="#3ED8EC"/>
<path d="M34.3018 33.7068V34.0717C34.3018 35.2751 32.9742 36.6717 30.7564 36.6717H28.3928C27.74 36.6717 27.2109 37.2008 27.2109 37.8535C27.2109 38.5061 27.74 39.0353 28.3928 39.0353H30.7564C33.7602 39.0353 36.6655 37.0455 36.6655 34.0717V33.7012C36.6598 33.7044 36.6541 33.7077 36.6485 33.7109C36.2359 33.9424 35.7604 34.0427 35.2909 34.0047C35.0018 33.9813 34.6394 33.8502 34.3018 33.7068Z" fill="#3ED8EC"/>
<path d="M20.1554 23.1026C20.494 20.2358 23.3704 17.7601 27.2129 17.7601C31.0555 17.7601 33.932 20.2359 34.2704 23.1028C34.6173 22.954 34.9943 22.8148 35.2928 22.7907C35.7602 22.7529 36.2334 22.852 36.6445 23.0813C36.2971 18.6458 32.0459 15.3965 27.2129 15.3965C22.3798 15.3965 18.1285 18.646 17.7812 23.0816C18.1925 22.8521 18.6659 22.7529 19.1336 22.7907C19.432 22.8148 19.8088 22.9538 20.1554 23.1026Z" fill="#3ED8EC"/>
</g>
<defs>
<filter id="filter0_d_1_477" x="0" y="0" width="54" height="54" filterUnits="userSpaceOnUse" color-interpolation-filters="sRGB">
<feFlood flood-opacity="0" result="BackgroundImageFix"/>
<feColorMatrix in="SourceAlpha" type="matrix" values="0 0 0 0 0 0 0 0 0 0 0 0 0 0 0 0 0 0 127 0" result="hardAlpha"/>
<feMorphology radius="1" operator="dilate" in="SourceAlpha" result="effect1_dropShadow_1_477"/>
<feOffset/>
<feComposite in2="hardAlpha" operator="out"/>
<feColorMatrix type="matrix" values="0 0 0 0 0.176471 0 0 0 0 0.180392 0 0 0 0 0.282353 0 0 0 1 0"/>
<feBlend mode="normal" in2="BackgroundImageFix" result="effect1_dropShadow_1_477"/>
<feBlend mode="normal" in="SourceGraphic" in2="effect1_dropShadow_1_477" result="shape"/>
</filter>
</defs>
</svg>
