<svg width="54" height="54" viewBox="0 0 54 54" fill="none" xmlns="http://www.w3.org/2000/svg">
<g filter="url(#filter0_d_1_214)">
<rect x="1" y="1" width="52" height="52" rx="16" fill="white" fill-opacity="0.07" shape-rendering="crispEdges"/>
<path d="M40.0003 29.0366C40.2183 29.6519 39.8961 30.3273 39.2809 30.5452C38.6502 30.7686 37.9216 31.2494 37.1498 31.9263C36.3902 32.5923 35.6515 33.3924 34.997 34.1769C34.3449 34.9587 33.7908 35.7076 33.3997 36.2619C33.2044 36.5384 33.0508 36.765 32.9468 36.9211L32.7929 37.1558C32.5645 37.5152 32.1603 37.7241 31.7349 37.7024C31.3096 37.6805 30.9288 37.4315 30.7383 37.0506C30.2175 36.009 29.7503 35.5943 29.5149 35.4372C29.4152 35.3708 29.3479 35.3442 29.3211 35.3351C28.7202 35.2793 28.25 34.7739 28.25 34.1585C28.25 33.5058 28.7791 32.9767 29.4318 32.9767C29.5292 32.9776 29.771 32.9953 29.9596 33.059C30.2052 33.1292 30.5017 33.2544 30.826 33.4705C31.1501 33.6867 31.4901 33.9853 31.8314 34.3941C32.2038 33.885 32.6629 33.2851 33.182 32.6628C33.8831 31.8223 34.7085 30.9234 35.5913 30.1492C36.462 29.3857 37.454 28.6847 38.4918 28.3171C39.107 28.0993 39.7824 28.4213 40.0003 29.0366Z" fill="#94E52F"/>
<path opacity="0.4" d="M25.235 37.4082C23.0616 37.4082 21.3548 37.4082 20.0092 37.2562C18.6357 37.101 17.5219 36.7776 16.5961 36.0464C16.319 35.8275 16.062 35.5857 15.8284 35.3237C15.0411 34.4407 14.6895 33.3703 14.522 32.0572C14.3594 30.7814 14.3594 29.167 14.3594 27.1296V27.005C14.3594 26.3245 14.3594 25.6912 14.3654 25.102C14.3688 24.7762 14.3704 24.6133 14.4741 24.5108C14.5777 24.4082 14.7418 24.4082 15.0701 24.4082H39.0577C39.386 24.4082 39.5502 24.4082 39.6538 24.5108C39.7573 24.6133 39.7591 24.7762 39.7624 25.102C39.7642 25.279 39.7655 25.4599 39.7664 25.6449C39.7683 26.0492 39.7693 26.2514 39.6682 26.3552C39.5672 26.4591 39.3164 26.4649 38.815 26.4764C38.5093 26.4834 38.1996 26.5383 37.8957 26.646C36.5528 27.1215 35.3632 27.9875 34.4184 28.8161C33.4431 29.6714 32.5527 30.6444 31.8166 31.527C31.7522 31.6041 31.72 31.6427 31.6891 31.6665C31.5982 31.7365 31.5016 31.7571 31.3901 31.7304C31.3521 31.7212 31.3018 31.6966 31.2012 31.6474C30.9503 31.5248 30.7075 31.4323 30.4774 31.3645C30.05 31.2284 29.6207 31.2054 29.4448 31.2038L29.4275 31.2037C27.7958 31.2037 26.473 32.5265 26.473 34.1582C26.473 35.4827 27.3435 36.6023 28.5444 36.9781L28.5498 36.9798C28.5901 36.9924 28.6136 36.9998 28.642 37.0332C28.7657 37.1786 28.6627 37.4082 28.4718 37.4082H25.235Z" fill="#94E52F"/>
<path d="M28.8914 16.7266C31.0648 16.7266 32.7717 16.7265 34.1173 16.8785C35.4908 17.0337 36.6045 17.3572 37.5303 18.0884C37.8075 18.3072 38.0644 18.549 38.2981 18.8111C39.0854 19.6941 39.4369 20.7645 39.6044 22.0777C39.6236 22.2288 39.6333 22.3043 39.6159 22.3707C39.5883 22.4767 39.5069 22.5692 39.4052 22.6101C39.3415 22.6357 39.2619 22.6357 39.1026 22.6357H15.0224C14.8631 22.6357 14.7835 22.6357 14.7198 22.6101C14.6181 22.5692 14.5367 22.4767 14.509 22.3707C14.4917 22.3043 14.5013 22.2288 14.5206 22.0777C14.6881 20.7645 15.0396 19.6941 15.8269 18.8111C16.0606 18.549 16.3176 18.3072 16.5947 18.0884C17.5205 17.3572 18.6343 17.0337 20.0077 16.8785C21.3534 16.7265 23.0602 16.7266 25.2336 16.7266H28.8914Z" fill="#94E52F"/>
<g filter="url(#filter1_f_1_214)">
<circle cx="28.5" cy="28.5" r="6.5" fill="#95E430"/>
</g>
</g>
<defs>
<filter id="filter0_d_1_214" x="0" y="0" width="54" height="54" filterUnits="userSpaceOnUse" color-interpolation-filters="sRGB">
<feFlood flood-opacity="0" result="BackgroundImageFix"/>
<feColorMatrix in="SourceAlpha" type="matrix" values="0 0 0 0 0 0 0 0 0 0 0 0 0 0 0 0 0 0 127 0" result="hardAlpha"/>
<feMorphology radius="1" operator="dilate" in="SourceAlpha" result="effect1_dropShadow_1_214"/>
<feOffset/>
<feComposite in2="hardAlpha" operator="out"/>
<feColorMatrix type="matrix" values="0 0 0 0 0.176471 0 0 0 0 0.180392 0 0 0 0 0.282353 0 0 0 1 0"/>
<feBlend mode="normal" in2="BackgroundImageFix" result="effect1_dropShadow_1_214"/>
<feBlend mode="normal" in="SourceGraphic" in2="effect1_dropShadow_1_214" result="shape"/>
</filter>
<filter id="filter1_f_1_214" x="4.4" y="4.4" width="48.2" height="48.2" filterUnits="userSpaceOnUse" color-interpolation-filters="sRGB">
<feFlood flood-opacity="0" result="BackgroundImageFix"/>
<feBlend mode="normal" in="SourceGraphic" in2="BackgroundImageFix" result="shape"/>
<feGaussianBlur stdDeviation="8.8" result="effect1_foregroundBlur_1_214"/>
</filter>
</defs>
</svg>
