<svg width="54" height="54" viewBox="0 0 54 54" fill="none" xmlns="http://www.w3.org/2000/svg">
<g filter="url(#filter0_d_1_182)">
<g clip-path="url(#clip0_1_182)">
<rect x="1" y="1" width="52" height="52" rx="16" fill="white" fill-opacity="0.07" shape-rendering="crispEdges"/>
<path d="M14.5286 25.6332C14.5655 23.9012 14.596 22.4702 14.7977 21.3105L17.4551 22.6781C17.3361 22.6361 17.2447 22.6326 17.1623 22.6781C16.9887 22.7737 16.9773 23.0134 16.9544 23.4926C16.9236 24.1385 16.9069 24.8873 16.888 25.7726C16.8636 26.9184 16.8636 27.5111 16.8881 28.657C16.9274 30.5006 16.9573 31.7521 17.1247 32.7153C17.2824 33.6222 17.5455 34.1612 17.9956 34.6124C18.441 35.0589 18.9872 35.3265 19.9247 35.4896C20.9153 35.6619 22.2073 35.6973 24.1017 35.7449C26.3735 35.8019 28.0512 35.8019 30.323 35.7448C32.2174 35.6973 33.5094 35.6619 34.5 35.4896C35.4375 35.3265 35.9837 35.0589 36.4291 34.6124C36.8792 34.1612 37.1423 33.6222 37.3 32.7153C37.4675 31.7521 37.4974 30.5005 37.5367 28.6568C37.5612 27.5111 37.5612 26.9184 37.5367 25.7726C37.5178 24.8872 37.501 24.1383 37.4703 23.4923C37.4474 23.0131 37.4359 22.7735 37.2624 22.6778C37.1798 22.6323 37.0882 22.6358 36.9689 22.6781L39.627 21.3105C39.8286 22.4702 39.8592 23.9012 39.8961 25.6332L39.898 25.7223C39.9232 26.9016 39.9232 27.5278 39.898 28.7072L39.8961 28.7963C39.8592 30.5282 39.8287 31.9593 39.627 33.1189C39.4123 34.3545 38.9881 35.3892 38.1023 36.2772C37.212 37.1698 36.1607 37.5952 34.9053 37.8136C33.7223 38.0193 32.2546 38.0561 30.4707 38.1009L30.3823 38.103C28.0709 38.161 26.3538 38.161 24.0424 38.1031L23.9539 38.1009C22.1701 38.0561 20.7025 38.0193 19.5195 37.8136C18.264 37.5952 17.2127 37.1698 16.3223 36.2772C15.4366 35.3892 15.0125 34.3546 14.7977 33.1189C14.596 31.9593 14.5655 30.5282 14.5286 28.7963L14.5267 28.7072C14.5015 27.5278 14.5015 26.9016 14.5267 25.7223L14.5286 25.6332Z" fill="#F9A876"/>
<path opacity="0.4" d="M24.0416 16.3267C26.3529 16.2687 28.0702 16.2687 30.3815 16.3267L30.47 16.3289C32.2538 16.3736 33.7215 16.4104 34.9045 16.6162C35.3421 16.6923 35.7548 16.7936 36.1447 16.931C36.2482 16.9553 36.3477 16.9935 36.4403 17.0442C37.05 17.2968 37.6012 17.6509 38.1016 18.1525C38.9873 19.0405 39.4114 20.0752 39.6263 21.3108L36.968 22.6784C36.8367 22.7249 36.6718 22.8184 36.4482 22.9451L31.4422 25.7815C29.9063 26.6518 28.6073 27.215 27.2113 27.215C25.8153 27.215 24.5164 26.6518 22.9805 25.7815L17.975 22.9453C17.751 22.8184 17.5858 22.7248 17.4543 22.6784L14.7969 21.3108C15.0117 20.0752 15.4358 19.0405 16.3215 18.1525C17.2119 17.2599 18.2632 16.8346 19.5187 16.6162C20.7017 16.4104 22.1693 16.3736 23.9531 16.3289L24.0416 16.3267Z" fill="#F9A876"/>
<g filter="url(#filter1_f_1_182)">
<circle cx="26.5" cy="29.5" r="6.5" fill="#F9A876"/>
</g>
</g>
</g>
<defs>
<filter id="filter0_d_1_182" x="0" y="0" width="54" height="54" filterUnits="userSpaceOnUse" color-interpolation-filters="sRGB">
<feFlood flood-opacity="0" result="BackgroundImageFix"/>
<feColorMatrix in="SourceAlpha" type="matrix" values="0 0 0 0 0 0 0 0 0 0 0 0 0 0 0 0 0 0 127 0" result="hardAlpha"/>
<feMorphology radius="1" operator="dilate" in="SourceAlpha" result="effect1_dropShadow_1_182"/>
<feOffset/>
<feComposite in2="hardAlpha" operator="out"/>
<feColorMatrix type="matrix" values="0 0 0 0 0.176471 0 0 0 0 0.180392 0 0 0 0 0.282353 0 0 0 1 0"/>
<feBlend mode="normal" in2="BackgroundImageFix" result="effect1_dropShadow_1_182"/>
<feBlend mode="normal" in="SourceGraphic" in2="effect1_dropShadow_1_182" result="shape"/>
</filter>
<filter id="filter1_f_1_182" x="2.4" y="5.4" width="48.2" height="48.2" filterUnits="userSpaceOnUse" color-interpolation-filters="sRGB">
<feFlood flood-opacity="0" result="BackgroundImageFix"/>
<feBlend mode="normal" in="SourceGraphic" in2="BackgroundImageFix" result="shape"/>
<feGaussianBlur stdDeviation="8.8" result="effect1_foregroundBlur_1_182"/>
</filter>
<clipPath id="clip0_1_182">
<rect x="1" y="1" width="52" height="52" rx="16" fill="white"/>
</clipPath>
</defs>
</svg>
