<svg width="54" height="54" viewBox="0 0 54 54" fill="none" xmlns="http://www.w3.org/2000/svg">
<g filter="url(#filter0_d_1_191)">
<rect x="1" y="1" width="52" height="52" rx="16" fill="white" fill-opacity="0.07" shape-rendering="crispEdges"/>
<path fill-rule="evenodd" clip-rule="evenodd" d="M22.4549 26.5887C22.8011 26.2426 23.3623 26.2426 23.7084 26.5887L24.2635 27.1437L24.8186 26.5887C25.1647 26.2426 25.7259 26.2426 26.0721 26.5887C26.4182 26.9349 26.4182 27.496 26.0721 27.8422L25.517 28.3973L26.0721 28.9524C26.4182 29.2985 26.4182 29.8596 26.0721 30.2058C25.7259 30.5519 25.1647 30.5519 24.8186 30.2058L24.2635 29.6508L23.7084 30.2058C23.3623 30.5519 22.8011 30.5519 22.4549 30.2058C22.1088 29.8596 22.1088 29.2985 22.4549 28.9524L23.01 28.3973L22.4549 27.8422C22.1088 27.496 22.1088 26.9349 22.4549 26.5887Z" fill="#78B8FA"/>
<path fill-rule="evenodd" clip-rule="evenodd" d="M16.5409 26.5887C16.887 26.2426 17.4482 26.2426 17.7944 26.5887L18.3494 27.1437L18.9045 26.5887C19.2506 26.2426 19.8119 26.2426 20.158 26.5887C20.5042 26.9349 20.5042 27.496 20.158 27.8422L19.6029 28.3973L20.158 28.9524C20.5042 29.2985 20.5042 29.8596 20.158 30.2058C19.8119 30.5519 19.2506 30.5519 18.9045 30.2058L18.3494 29.6508L17.7944 30.2058C17.4482 30.5519 16.887 30.5519 16.5409 30.2058C16.1947 29.8596 16.1947 29.2985 16.5409 28.9524L17.0959 28.3973L16.5409 27.8422C16.1947 27.496 16.1947 26.9349 16.5409 26.5887Z" fill="#78B8FA"/>
<path fill-rule="evenodd" clip-rule="evenodd" d="M28.3612 26.5887C28.7073 26.2426 29.2686 26.2426 29.6147 26.5887L30.1698 27.1437L30.7248 26.5887C31.071 26.2426 31.6322 26.2426 31.9784 26.5887C32.3245 26.9349 32.3245 27.496 31.9784 27.8422L31.4233 28.3973L31.9784 28.9524C32.3245 29.2985 32.3245 29.8596 31.9784 30.2058C31.6322 30.5519 31.071 30.5519 30.7248 30.2058L30.1698 29.6508L29.6147 30.2058C29.2686 30.5519 28.7073 30.5519 28.3612 30.2058C28.015 29.8596 28.015 29.2985 28.3612 28.9524L28.9163 28.3973L28.3612 27.8422C28.015 27.496 28.015 26.9349 28.3612 26.5887Z" fill="#78B8FA"/>
<path fill-rule="evenodd" clip-rule="evenodd" d="M34.2674 26.5887C34.6136 26.2426 35.1748 26.2426 35.521 26.5887L36.0761 27.1437L36.6311 26.5887C36.9772 26.2426 37.5385 26.2426 37.8846 26.5887C38.2308 26.9349 38.2308 27.496 37.8846 27.8422L37.3295 28.3973L37.8846 28.9524C38.2308 29.2985 38.2308 29.8596 37.8846 30.2058C37.5385 30.5519 36.9772 30.5519 36.6311 30.2058L36.0761 29.6508L35.521 30.2058C35.1748 30.5519 34.6136 30.5519 34.2674 30.2058C33.9213 29.8596 33.9213 29.2985 34.2674 28.9524L34.8225 28.3973L34.2674 27.8422C33.9213 27.496 33.9213 26.9349 34.2674 26.5887Z" fill="#78B8FA"/>
<g filter="url(#filter1_f_1_191)">
<circle cx="28.5" cy="28.5" r="6.5" fill="#78B9F9"/>
</g>
<g opacity="0.4">
<path d="M22.2005 15.9118C23.6093 15.1819 25.2247 14.5107 27.2117 14.5107C29.1986 14.5107 30.8147 15.182 32.2242 15.9118C32.65 16.1323 33.0457 16.3505 33.4239 16.5589C34.3492 17.0691 35.1695 17.5214 36.0701 17.8085C36.5987 17.9771 37.0668 18.1264 37.3989 18.2565C37.7114 18.3789 38.0827 18.5466 38.3463 18.8395C38.5831 19.1025 38.7047 19.3979 38.7853 19.6804C38.8586 19.9369 38.9211 20.2841 38.9811 20.6172C39.1966 21.8115 39.3111 22.9966 39.3247 24.1588C39.3285 24.4803 39.3304 24.641 39.2263 24.7463C39.1221 24.8517 38.9574 24.8517 38.6279 24.8517H15.7996C15.4701 24.8517 15.3054 24.8517 15.2013 24.7464C15.0972 24.6411 15.0991 24.4803 15.1028 24.1589C15.1163 22.9967 15.2306 21.8116 15.446 20.6173C15.506 20.2842 15.5685 19.937 15.6417 19.6806C15.7224 19.3981 15.8439 19.1028 16.0806 18.8397C16.3442 18.5469 16.7155 18.3791 17.028 18.2566C17.36 18.1265 17.8283 17.9771 18.3569 17.8085C19.2569 17.5213 20.0765 17.0692 21.0012 16.5591C21.3792 16.3506 21.7747 16.1324 22.2005 15.9118Z" fill="#78B8FA"/>
<path d="M29.437 39.409C28.6691 39.703 28.1037 39.9197 27.216 39.9197C26.3284 39.9197 25.7629 39.703 24.9949 39.409C21.4929 38.0682 18.9178 35.7838 17.2742 32.9403C17.0263 32.5114 16.9024 32.297 17.0047 32.1198C17.1071 31.9424 17.3632 31.9424 17.8755 31.9424H36.5547C37.0669 31.9424 37.3229 31.9424 37.4253 32.1197C37.5276 32.297 37.4038 32.5114 37.1561 32.9402C35.5132 35.7836 32.9389 38.0681 29.437 39.409Z" fill="#78B8FA"/>
</g>
</g>
<defs>
<filter id="filter0_d_1_191" x="0" y="0" width="54" height="54" filterUnits="userSpaceOnUse" color-interpolation-filters="sRGB">
<feFlood flood-opacity="0" result="BackgroundImageFix"/>
<feColorMatrix in="SourceAlpha" type="matrix" values="0 0 0 0 0 0 0 0 0 0 0 0 0 0 0 0 0 0 127 0" result="hardAlpha"/>
<feMorphology radius="1" operator="dilate" in="SourceAlpha" result="effect1_dropShadow_1_191"/>
<feOffset/>
<feComposite in2="hardAlpha" operator="out"/>
<feColorMatrix type="matrix" values="0 0 0 0 0.176471 0 0 0 0 0.180392 0 0 0 0 0.282353 0 0 0 1 0"/>
<feBlend mode="normal" in2="BackgroundImageFix" result="effect1_dropShadow_1_191"/>
<feBlend mode="normal" in="SourceGraphic" in2="effect1_dropShadow_1_191" result="shape"/>
</filter>
<filter id="filter1_f_1_191" x="4.4" y="4.4" width="48.2" height="48.2" filterUnits="userSpaceOnUse" color-interpolation-filters="sRGB">
<feFlood flood-opacity="0" result="BackgroundImageFix"/>
<feBlend mode="normal" in="SourceGraphic" in2="BackgroundImageFix" result="shape"/>
<feGaussianBlur stdDeviation="8.8" result="effect1_foregroundBlur_1_191"/>
</filter>
</defs>
</svg>
