<svg width="20" height="20" viewBox="0 0 20 20" fill="none" xmlns="http://www.w3.org/2000/svg">
<path d="M0.356902 0.78113C0.523592 0.45513 0.858862 0.25 1.225 0.25H6.1C6.41308 0.25 6.70711 0.40034 6.89041 0.65415L11.5354 7.08571L18.0856 0.53557C18.4663 0.15481 19.0837 0.15481 19.4644 0.53557C19.8452 0.91633 19.8452 1.53367 19.4644 1.91443L12.6919 8.687L19.5654 18.2041C19.7798 18.501 19.8098 18.8929 19.6431 19.2189C19.4764 19.5449 19.1411 19.75 18.775 19.75H13.9C13.5869 19.75 13.2929 19.5997 13.1096 19.3459L8.4646 12.9143L1.91443 19.4644C1.53367 19.8452 0.916342 19.8452 0.535572 19.4644C0.154812 19.0837 0.154812 18.4663 0.535572 18.0856L7.30811 11.313L0.434592 1.79585C0.220222 1.49903 0.190212 1.10713 0.356902 0.78113Z" fill="#CAD1E9"/>
</svg>
