<svg width="22" height="20" viewBox="0 0 22 20" fill="none" xmlns="http://www.w3.org/2000/svg">
<path fill-rule="evenodd" clip-rule="evenodd" d="M5.69674 1.27174C7.35573 0.93356 9.1414 0.75 11 0.75C12.8586 0.75 14.6443 0.93356 16.3032 1.27174L16.4305 1.29766C18.3251 1.68329 19.5875 1.94024 20.6754 3.33892C21.7516 4.72258 21.751 6.3272 21.75 8.8124V11.1876C21.751 13.6728 21.7516 15.2774 20.6754 16.6611C19.5875 18.0598 18.3251 18.3167 16.4305 18.7023L16.3032 18.7283C14.6443 19.0664 12.8586 19.25 11 19.25C9.1414 19.25 7.35573 19.0664 5.69674 18.7283L5.56946 18.7023C3.67483 18.3167 2.41243 18.0598 1.32458 16.6611C0.248402 15.2774 0.249002 13.6728 0.249932 11.1876V8.8124C0.249002 6.3272 0.248402 4.72258 1.32458 3.33892C2.41243 1.94024 3.67483 1.68329 5.56946 1.29766L5.69674 1.27174ZM10.2945 6.25224C10.813 6.46986 11.4429 6.82163 12.213 7.25173C12.3144 7.30834 12.4163 7.36458 12.5183 7.42088C13.0217 7.69878 13.528 7.9783 13.9949 8.314C14.4145 8.6157 14.8126 8.9896 14.9444 9.5349C15.0184 9.841 15.0184 10.159 14.9444 10.4651C14.8126 11.0104 14.4145 11.3843 13.9949 11.686C13.528 12.0217 13.0216 12.3013 12.5182 12.5792C12.4162 12.6355 12.3144 12.6917 12.213 12.7483C11.4429 13.1784 10.8131 13.5301 10.2945 13.7478C9.4515 14.1015 8.55759 14.1302 7.82288 13.5282C7.36304 13.1514 7.20049 12.6119 7.12917 12.0683C6.95682 10.7544 6.95674 9.2462 7.12917 7.93172C7.20049 7.38806 7.36304 6.84858 7.82288 6.47181C8.55759 5.86983 9.4515 5.89845 10.2945 6.25224Z" fill="#CAD1E9"/>
</svg>
